<svg width="15" height="15" viewBox="0 0 15 15" fill="none" xmlns="http://www.w3.org/2000/svg">
<path d="M0.0414176 0.774998C0.0746373 0.772579 0.107987 0.772579 0.141206 0.774998H3.45924C3.52454 0.846129 3.56787 0.9347 3.58398 1.02999C4.17607 2.80333 4.77148 4.57666 5.37023 6.34999L7.27123 12C7.27123 12.085 7.33111 12.165 7.37601 12.28C7.42092 12.17 7.45584 12.095 7.48079 12.02L9.57639 5.835L11.208 0.999996C11.2379 0.914996 11.2728 0.829998 11.3078 0.739998H14.6258H14.7405C14.7554 0.764557 14.7656 0.79169 14.7705 0.819996C14.7705 5.43 14.7705 10.04 14.7705 14.65C14.7739 14.6799 14.7739 14.7101 14.7705 14.74C14.7705 14.74 14.7356 14.74 14.7206 14.74H12.5801H12.4753C12.4753 14.695 12.4753 14.655 12.4753 14.62C12.4753 14.585 12.4753 14.455 12.4753 14.37C12.4753 10.8667 12.4753 7.36666 12.4753 3.87C12.489 3.76041 12.4771 3.64913 12.4404 3.54499C12.2757 3.94499 12.166 4.32499 12.0362 4.68999C11.9065 5.05499 11.7818 5.43999 11.652 5.81499C11.5223 6.18999 11.4026 6.55 11.2728 6.915C11.1431 7.28 11.0184 7.66 10.8886 8.035L10.5044 9.16C10.3747 9.535 10.25 9.91 10.1202 10.28C9.99052 10.65 9.86579 11.03 9.73606 11.405C9.60633 11.78 9.48658 12.135 9.35685 12.505C9.22713 12.875 9.10239 13.25 8.97266 13.625C8.84293 14 8.71819 14.375 8.59346 14.74C8.39887 14.78 6.72737 14.795 6.21345 14.74C6.13362 14.685 6.12364 14.585 6.0987 14.505L4.83136 10.9L2.44637 3.9C2.44637 3.825 2.39148 3.74999 2.35656 3.66999C2.29169 3.66999 2.31664 3.745 2.31664 3.775C2.31664 3.805 2.31664 3.94 2.31664 4.025V14.47C2.31664 14.57 2.31664 14.665 2.31664 14.77C2.28333 14.785 2.24804 14.7951 2.21186 14.8H0.10628H0.0464044C0.0318612 14.7575 0.0201927 14.7141 0.0114779 14.67C0.0114779 14.605 0.0114779 14.54 0.0114779 14.475V1.095C-0.00344545 0.987448 0.00680631 0.877894 0.0414176 0.774998Z" fill="black"/>
</svg>
