<svg width="15" height="15" viewBox="0 0 15 15" fill="none" xmlns="http://www.w3.org/2000/svg">
<path d="M15 7.15C15.0215 8.31217 14.7917 9.46523 14.3264 10.53C13.9105 11.4839 13.2734 12.3244 12.4681 12.9819C11.6627 13.6393 10.7124 14.0947 9.69614 14.31C8.3112 14.6512 6.85732 14.5835 5.50993 14.115C4.53087 13.7938 3.64159 13.2448 2.91487 12.5131C2.18814 11.7814 1.6446 10.8876 1.32871 9.905C1.02521 8.99715 0.88829 8.04174 0.924557 7.085C0.93498 6.22519 1.08323 5.37266 1.36363 4.56C1.74031 3.43796 2.41013 2.43756 3.30341 1.66287C4.1967 0.888177 5.28081 0.367499 6.44297 0.154998C7.7724 -0.122845 9.15223 -0.0329683 10.4346 0.414998C11.3952 0.738934 12.2673 1.28261 12.9817 2.00294C13.6962 2.72327 14.2335 3.60046 14.5509 4.565C14.7832 5.20854 14.9226 5.88199 14.9651 6.565C14.98 6.8 14.995 7.03 15 7.15ZM12.605 7.27C12.605 7 12.5701 6.725 12.5402 6.455C12.4762 5.79785 12.2901 5.1585 11.9913 4.57C11.7364 4.04148 11.3752 3.57146 10.9305 3.18944C10.4857 2.80741 9.96694 2.52162 9.40675 2.35C8.70294 2.13321 7.95967 2.07683 7.23131 2.185C6.13978 2.31853 5.14299 2.87266 4.45215 3.73C3.94748 4.35311 3.60464 5.09176 3.45425 5.88C3.30792 6.55805 3.27087 7.2552 3.34448 7.945C3.41428 8.62964 3.60877 9.29565 3.91827 9.91C4.38829 10.9057 5.22534 11.68 6.25337 12.07C6.94815 12.3337 7.69476 12.4313 8.43379 12.355C9.09208 12.3035 9.73094 12.1072 10.3049 11.78C11.1749 11.2607 11.838 10.4548 12.1809 9.5C12.4558 8.7885 12.5995 8.03292 12.605 7.27Z" fill="black"/>
</svg>
