<svg width="12" height="15" viewBox="0 0 12 15" fill="none" xmlns="http://www.w3.org/2000/svg">
<path d="M8.26265 7.99999L8.50215 8.10999C9.16198 8.38793 9.69049 8.90861 9.97905 9.56499C10.1299 9.89421 10.2421 10.2399 10.3133 10.595C10.5595 11.735 10.8023 12.8717 11.0418 14.005C11.0418 14.095 11.0767 14.18 11.0917 14.285C11.051 14.2972 11.0092 14.3055 10.967 14.31H8.77158H8.70173C8.70173 14.26 8.65683 14.2 8.64186 14.14C8.44228 13.19 8.24103 12.24 8.03813 11.29C7.98823 11.045 7.91838 10.79 7.85351 10.57C7.83881 10.5148 7.81876 10.4612 7.79364 10.41C7.65358 9.988 7.39592 9.61498 7.05111 9.33501C6.7063 9.05503 6.28873 8.8798 5.84772 8.82999C5.57818 8.79261 5.30653 8.77257 5.03443 8.76999H2.96378C2.87851 8.75394 2.79032 8.76808 2.7143 8.80999C2.68437 9.06499 2.7143 9.30999 2.7143 9.58999V14.295C2.67169 14.3063 2.62834 14.3147 2.58458 14.32H0.444072C0.407547 14.3231 0.370828 14.3231 0.334303 14.32V14.175C0.331803 14.1267 0.331803 14.0783 0.334303 14.03V0.589995C0.334303 0.489995 0.334303 0.394995 0.334303 0.284995C0.404092 0.280755 0.474073 0.280755 0.543862 0.284995H6.18701C6.84563 0.277801 7.50107 0.377421 8.12794 0.579995C8.49559 0.700941 8.84609 0.869 9.17075 1.07999C9.89972 1.55143 10.432 2.27325 10.6676 3.10999C10.892 3.89249 10.892 4.7225 10.6676 5.50499C10.5361 5.9881 10.3047 6.43809 9.98838 6.82573C9.67204 7.21336 9.27787 7.52998 8.83146 7.75499C8.74664 7.805 8.65683 7.84499 8.56701 7.88999L8.26265 7.99999ZM2.7143 6.65999H6.34169C6.60489 6.64964 6.86454 6.59557 7.11007 6.49999C7.41435 6.39142 7.68707 6.20903 7.90386 5.9691C8.12065 5.72916 8.27477 5.43916 8.35246 5.12499C8.41734 4.87724 8.43761 4.61988 8.41234 4.36499C8.39374 3.9756 8.26199 3.60015 8.03329 3.28479C7.80458 2.96944 7.48889 2.72794 7.12504 2.58999C6.83497 2.47143 6.52521 2.40866 6.21196 2.40499H2.99372C2.90781 2.38942 2.81921 2.39986 2.73925 2.43499C2.70433 2.67999 2.68936 4.93499 2.73925 6.46999C2.69934 6.49999 2.70932 6.56999 2.7143 6.65999Z" fill="black"/>
</svg>
